<?xml version="1.0" encoding="utf-8"?>
<!-- Generator: Adobe Illustrator 22.1.0, SVG Export Plug-In . SVG Version: 6.00 Build 0)  -->
<svg version="1.1" id="Layer_1" xmlns="http://www.w3.org/2000/svg" xmlns:xlink="http://www.w3.org/1999/xlink" x="0px" y="0px"
	 viewBox="0 0 135.2 140.4" style="enable-background:new 0 0 135.2 140.4;" xml:space="preserve">
<style type="text/css">
	.st0{fill-rule:evenodd;clip-rule:evenodd;fill:#76787B;}
</style>
<g id="_x38_XkEx9_2_">
	<g>
		<g>
			<path class="st0" d="M68.5,47.6c-2.2,1.7-4.4,3.3-6.6,4.9c-0.8,0.6-1.4,0.4-2-0.3c-3.5-3.6-7.7-6.1-12.4-7.9
				c-17.1-6.6-35.8,4-39,21.9C5.1,86.5,23.7,103.8,43.7,99c6.1-1.5,11.5-4.3,16-8.8c0.7-0.7,1.2-0.8,2-0.1c1.9,1.5,4,2.9,6.2,4.5
				c-0.8,0.8-1.5,1.6-2.2,2.3c-5.5,5.3-11.7,9.8-19.3,11.4c-11.7,2.5-22.4-0.1-31.8-7.4C2.7,91.7-1.6,79.4,0.5,64.7
				c1.2-8.5,4.5-16,10.6-22.2c6.3-6.4,14.2-9.5,23.1-10C46,32,55.9,36.7,64.9,44c1.2,0.9,2.2,2,3.3,3C68.3,47.1,68.3,47.3,68.5,47.6
				z"/>
			<path class="st0" d="M132.6,72c0,11.4,0,22.8,0,34.2c0,6.5-1,12.9-4.1,18.7c-4.5,8.4-11.7,12.8-20.8,14.6c-2.9,0.6-6,0.7-8.9,1
				c-1.2,0.1-1.5-0.4-1.5-1.5c0.1-2.1,0.1-4.3,0-6.4c0-1.1,0.3-1.6,1.5-1.7c3.4-0.5,6.8-1,10.2-1.7c5.1-1.1,8.7-4.1,11-8.7
				c2.4-4.7,3.8-9.6,3.8-14.9c0-23.2,0-46.4,0-69.6c0-2.1,0-2.1,2.1-2.1c1.7,0,3.5,0.1,5.2,0c1.2-0.1,1.6,0.3,1.6,1.5
				c-0.1,7.3,0,14.6,0,21.9C132.6,62.1,132.6,67.1,132.6,72z"/>
			<path class="st0" d="M57,86.6c-2.4,2.9-5.2,4.9-8.3,6.4c-8.9,4.5-22,2.5-29.4-4.7c-5.2-5.1-7.2-11.5-6.5-18.7
				c0.5-5.3,2.2-10.1,5.7-14.2c4.1-4.8,9.4-7.3,15.5-8.3c8.4-1.3,15.6,1.1,21.7,6.9c1.8,1.7,1.7,1.8-0.2,3.2c-1.7,1.2-3.4,2.4-5,3.7
				c-0.9,0.7-1.4,0.6-2.2-0.2c-7.2-6.9-19-5-23.9,3.7c-5,8.9,1.2,20.5,11.4,21.6c4.9,0.5,9.1-0.8,12.7-4.2c0.3-0.3,1.1-0.6,1.4-0.4
				C52.3,83,54.5,84.7,57,86.6z"/>
			<path class="st0" d="M119.3,33.7c0,0.7,0,1.2,0,1.7c0,23.6,0.1,47.1-0.1,70.7c0,5-1.5,9.7-4.3,14c-1.1,1.7-2.6,3.2-4.7,3.7
				c-3.9,1-7.9,1.9-11.8,2.8c-0.8,0.2-1.1-0.2-1.1-1c0-2.8,0-5.6,0-8.4c0-0.8,0.3-1.1,1.1-1.1c1.6,0,3.3-0.1,4.9-0.3
				c3.5-0.4,5.4-2.1,6-5.5c0.4-2.1,0.5-4.3,0.5-6.5c0-22.6,0-45.3,0-67.9c0-2.1,0-2.1,2-2.1C114.3,33.7,116.6,33.7,119.3,33.7z"/>
			<path class="st0" d="M74.6,33.7c3.1,0,5.9,0,8.8,0c0.3,0,0.6,0.5,0.7,0.8c0.1,0.3,0,0.7,0,1c0,24.3,0,48.6,0,72.8
				c0,2.1,0,2.1-2.2,2.1c-1.9,0-3.8-0.1-5.7,0c-1.3,0.1-1.7-0.4-1.7-1.7c0-15.2,0-30.4,0-45.6c0-9.2,0-18.4,0-27.6
				C74.6,35,74.6,34.5,74.6,33.7z"/>
			<path class="st0" d="M88.6,33.8c2.9,0,5.7,0,8.6,0c0,0.6,0.1,1.2,0.1,1.7c0,24.3,0,48.7,0,73c0,1.9,0,1.9-1.9,1.9
				c-1.6,0-3.3,0-4.9,0.1c-1.4,0.1-1.9-0.3-1.9-1.8c0.1-18.4,0-36.8,0-55.3c0-5.9,0-11.8,0-17.7C88.6,35.1,88.6,34.5,88.6,33.8z"/>
			<path class="st0" d="M123.9,0c7.2,1.2,11.9,7.4,11.2,14.7c-0.6,6.4-6.5,11.3-11.2,11.3C123.9,17.4,123.9,8.8,123.9,0z"/>
			<path class="st0" d="M83.9,26.1c-2.7-0.4-4.9-1.5-6.7-3.3c-3.7-3.5-4.9-7.8-3.8-12.7c1.1-5,4.4-8.3,9.3-9.8
				c0.8-0.3,1.4-0.4,1.4,0.8c0,8.1,0,16.3,0,24.4C84,25.6,84,25.8,83.9,26.1z"/>
			<path class="st0" d="M88.7,0c7.2,1.7,11.5,7.6,10.8,14.8c-0.5,5.5-5.9,11.1-10.8,11.2C88.7,17.4,88.7,8.8,88.7,0z"/>
			<path class="st0" d="M119.2,0.4c0,8.5,0,17,0,25.5c-5.7-0.5-10.9-7-10.5-13.4C109,5.4,114.7,0.6,119.2,0.4z"/>
		</g>
	</g>
</g>
</svg>
