<?xml version="1.0" encoding="utf-8"?>
<!-- Generator: Adobe Illustrator 22.1.0, SVG Export Plug-In . SVG Version: 6.00 Build 0)  -->
<svg version="1.1" id="Layer_1" xmlns="http://www.w3.org/2000/svg" xmlns:xlink="http://www.w3.org/1999/xlink" x="0px" y="0px"
	 viewBox="0 0 158.2 144.4" style="enable-background:new 0 0 158.2 144.4;" xml:space="preserve">
<style type="text/css">
	.st0{fill-rule:evenodd;clip-rule:evenodd;fill:#76787B;}
</style>
<g id="XIRvCi_2_">
	<g>
		<g>
			<path class="st0" d="M104.8,52.4c-2.5,0-5,0-7.5,0c-0.4-14.7-6.2-26.7-17.9-35.7c-8.6-6.6-18.6-9.6-29.4-9
				c-11.8,0.7-21.9,5.3-30,13.9C11.8,30.2,7.8,40.6,7.6,52.4c-2.5,0-5.1,0-7.6,0C-0.3,39,5.8,20.6,23.1,9C39.9-2.4,62-3.1,79.6,7.6
				C97.4,18.4,105.1,37,104.8,52.4z"/>
			<path class="st0" d="M24.4,36.4c2.2,1.3,4.3,2.5,6.5,3.8c-4.1,7.9-4.5,15.9-0.3,23.9c3.3,6.3,8.6,10.5,15.5,12.3
				c14.3,3.7,27.6-5.4,30.4-18.7c1.6-7.6,0-14.6-4.9-20.6c-4.9-6-11.3-9-19-9.2c-0.2-0.7-0.2-6.4-0.1-7.5
				c9.7-0.4,23.6,5.3,29.7,19.6c6.1,14.3,1.1,30.9-11.8,39.5c-13.1,8.7-30.3,6.8-41.1-4.3C18.3,63.8,17.8,47.4,24.4,36.4z"/>
			<path class="st0" d="M52.6,52.3c3.6-3.5,7.1-7.1,10.7-10.6c4.4,4,6.4,11.9,2.4,18.8c-3.9,6.5-12.2,9.2-19.1,6.3
				c-7.1-3-10.9-10.7-9-18.1c2.1-7.9,9.6-11.7,14.9-11.4c0,2.5,0,5,0,7.5c0,2.5,0,5,0,7.5C52.5,52.3,52.5,52.3,52.6,52.3z"/>
			<path class="st0" d="M33.2,120.9c0.5-1.2,0.9-2.2,1.3-3.3c1.3-3.3,2.6-6.6,3.9-9.9c0.3-0.8,0.8-1.3,1.7-1.2c0.1,0,0.2,0,0.3,0
				c1.2,0,1.4,0.3,1.4,1.4c0,5.5,0,11,0,16.5c0,0.2,0,0.4,0,0.6c-0.7,0.2-1.3,0.2-2.1,0.1c0-0.4-0.1-0.7-0.1-1.1c0-4.1,0-8.2,0-12.3
				c0-0.3,0-0.5,0-0.8c-0.1,0-0.1,0-0.2,0c-0.1,0.2-0.2,0.3-0.3,0.5c-1.4,3.4-2.8,6.9-4.2,10.3c-0.2,0.5-0.3,1-0.8,1.1
				c-0.7,0.1-1.4,0.1-2.1-0.1c-0.3-0.1-0.6-0.5-0.7-0.9c-1.4-3.4-2.8-6.8-4.2-10.1c-0.1-0.2-0.2-0.4-0.5-0.6c0,0.3-0.1,0.6-0.1,0.9
				c0,4,0,8,0,11.9c0,0.3,0,0.7-0.1,1.1c-0.7,0-1.4,0-2.1,0c0-0.3-0.1-0.6-0.1-0.8c0-5.4,0-10.9,0-16.3c0-0.3,0-0.6,0.1-0.8
				c0.1-0.2,0.2-0.5,0.4-0.5c0.7-0.1,1.4-0.1,2.1-0.1c0.5,0.1,0.7,0.6,0.9,1.1c1,2.6,2.1,5.1,3.1,7.7c0.6,1.6,1.3,3.2,1.9,4.8
				C33,120.5,33.1,120.6,33.2,120.9z"/>
			<path class="st0" d="M61.7,116c0-2.5,0-5.1,0-7.6c0-0.2,0-0.5,0-0.7c0.1-0.7,0.4-1,1.2-1c2,0,4.1-0.1,6.1,0
				c3.1,0.2,5.4,1.7,6.5,4.6c1.2,3.3,1.2,6.7-0.3,10c-1,2.2-2.8,3.4-5.1,3.9c-0.7,0.1-1.4,0.2-2.1,0.2c-1.5,0-3.1,0-4.6,0
				c-1.1,0-1.5-0.3-1.5-1.5C61.7,121.2,61.7,118.6,61.7,116L61.7,116z M64.1,123.1c1.8,0,3.5,0.2,5.3-0.1c2-0.4,3.3-1.5,3.9-3.4
				c0.7-2.3,0.7-4.6,0.1-6.9c-0.6-2.3-2.2-3.7-4.6-3.9c-1.4-0.1-2.9-0.1-4.4-0.1c-0.1,0-0.2,0.1-0.3,0.1
				C64.1,113.6,64.1,118.3,64.1,123.1z"/>
			<path class="st0" d="M101.2,125.3c-0.8,0-1.6,0-2.3,0c-0.4,0-0.5-0.3-0.6-0.7c-0.3-0.9-0.6-1.8-0.9-2.7c-0.1-0.3-0.2-0.6-0.3-0.9
				c-2.5,0-5,0-7.6,0c-0.2,0.6-0.5,1.2-0.7,1.8c-0.2,0.6-0.4,1.2-0.6,1.8c-0.1,0.5-0.4,0.7-0.9,0.7c-0.6,0-1.1,0-1.8,0
				c0.1-0.4,0.1-0.7,0.2-0.9c2-5.6,4-11.2,5.9-16.8c0.2-0.7,0.6-1,1.3-1c0.1,0,0.1,0,0.2,0c1.4,0,1.7-0.1,2.2,1.5
				c1.9,5.4,3.8,10.9,5.7,16.3C101,124.6,101.1,124.9,101.2,125.3z M96.4,118.8c-1-3.2-2-6.3-3-9.4c-0.1,0-0.2,0-0.2,0
				c-1.1,3.1-2,6.2-3,9.4C92.2,118.8,94.2,118.8,96.4,118.8z"/>
			<path class="st0" d="M58.3,106.7c0,0.6,0,1.2,0,1.9c-0.4,0-0.7,0.1-1.1,0.1c-2.1,0-4.1,0-6.2,0c-2,0-2.5,0.5-2.5,2.5
				c0,1,0,2,0,3.1c3,0,5.9,0,8.8,0c0.3,0.7,0.2,1.3,0.1,1.9c-0.3,0-0.7,0.1-1,0.1c-2.3,0-4.5,0-6.8,0c-0.3,0-0.7,0-1.1,0
				c0,0.2-0.1,0.4-0.1,0.6c0,1.3,0,2.7,0,4c0,1.5,0.7,2.1,2.2,2.1c2.2,0,4.4,0,6.5,0c0.4,0,0.8,0,1.3,0c0,0.7,0,1.4,0,2.1
				c-0.3,0-0.6,0.1-0.9,0.1c-2.3,0-4.6,0-7,0c-0.6,0-1.2-0.1-1.8-0.3c-1.3-0.4-2.2-1.2-2.5-2.6c-0.1-0.5-0.2-1.1-0.2-1.7
				c0-3.2,0-6.4,0-9.6c0-0.5,0-1,0.2-1.4c0.4-1.8,1.8-3,3.6-3.1c2.6-0.1,5.3,0,7.9,0C58,106.6,58.1,106.7,58.3,106.7z"/>
			<path class="st0" d="M45.8,136.5c0.1,0.1,0.2,0.2,0.3,0.2c1.6,1,2.3,2.3,1.9,4.2c-0.3,1.6-1.6,2.9-3.3,3.2
				c-0.4,0.1-0.9,0.1-1.3,0.1c-1.4,0-2.8,0-4.2,0c-1.1,0-1.3-0.2-1.3-1.3c0-3.8,0-7.6,0-11.3c0-1.1,0.1-1.2,1.2-1.3
				c1.9,0,3.7-0.1,5.6,0.1c1.3,0.1,2.3,0.8,2.7,2.1c0.4,1.2,0.2,2.4-0.7,3.3C46.4,136,46.1,136.2,45.8,136.5z M39.7,142.6
				c0.3,0,0.5,0,0.7,0c1.2,0,2.3,0,3.5,0c1.1-0.1,2.4-0.8,2.4-2.5c0-1.4-0.8-2.5-2.2-2.6c-1.4-0.1-2.9,0-4.4,0
				C39.7,139.1,39.7,140.8,39.7,142.6z M39.7,131.9c0,1.4,0,2.6,0,3.9c1.5,0,2.8,0,4.2,0c0.2,0,0.3-0.1,0.5-0.1
				c0.9-0.3,1.3-1.1,1.2-2.2c-0.1-0.9-0.7-1.5-1.6-1.6C42.6,131.9,41.2,131.9,39.7,131.9z"/>
			<path class="st0" d="M138,138.2c0,2,0,3.9,0,5.8c-0.6,0.3-1.1,0.2-1.7,0.1c0-0.3,0-0.6,0-1c0-3.8,0-7.6,0-11.4
				c0-1.4,0.1-1.5,1.5-1.5c1.3,0,2.6,0,3.9,0c1,0,1.9,0.2,2.7,0.7c2.2,1.4,2.2,5.1-0.1,6.3c-0.1,0.1-0.2,0.1-0.3,0.2
				c0,0.1,0,0.2,0,0.2c0.9,0.4,1.3,1.1,1.5,2c0.3,1.3,0.7,2.5,1.1,3.8c0,0.2,0,0.3,0,0.5c-0.7,0.2-0.9,0.2-1.7,0
				c-0.2-0.8-0.5-1.7-0.8-2.6c-0.1-0.3-0.2-0.7-0.3-1c-0.5-1.7-1.2-2.3-2.9-2.3C139.9,138.2,139,138.2,138,138.2z M138.1,136.7
				c1.5,0,3,0.2,4.4-0.2c1.1-0.3,1.8-1.2,1.7-2.4c0-1.2-0.7-2.1-1.9-2.2c-1.4-0.1-2.8,0-4.2,0C138.1,133.5,138.1,135,138.1,136.7z"
				/>
			<path class="st0" d="M81.4,137.7c1.2,0.5,1.5,1.5,1.8,2.6c0.3,1.1,0.6,2.1,0.9,3.1c0.1,0.2,0.1,0.4,0.1,0.7c-0.6,0-1.2,0-1.8,0
				c-0.3-1.1-0.7-2.2-0.9-3.3c-0.5-2.1-1.2-2.7-3.4-2.6c-0.7,0-1.4,0-2.1,0c-0.1,0-0.2,0-0.4,0.1c0,1.9,0,3.8,0,5.8
				c-0.6,0-1.1,0-1.7,0c0-0.3-0.1-0.6-0.1-0.9c0-3.9,0-7.8,0-11.7c0-0.1,0-0.2,0-0.3c0-0.7,0.2-1,1-1c0.8,0,1.5,0,2.3,0
				c1.1,0,2.1,0,3.2,0.1c3.3,0.5,3.9,4.1,2.5,5.9C82.5,136.8,81.9,137.2,81.4,137.7z M75.6,136.6c1.4,0,2.6,0,3.8,0
				c0.3,0,0.6-0.1,0.9-0.2c1-0.4,1.5-1.4,1.4-2.5c-0.1-1.1-0.8-1.9-1.9-2c-1.4-0.1-2.8,0-4.2,0C75.6,133.5,75.6,135,75.6,136.6z"/>
			<path class="st0" d="M35.3,137.3c-0.1,0.8-0.2,1.6-0.3,2.4c-0.7,3.6-3.2,4.9-6.5,4.6c-2.5-0.2-4-1.6-4.6-4
				c-0.6-2.3-0.6-4.6,0.3-6.8c1.8-4.4,7.1-4.2,9.2-2c1,1,1.4,2.2,1.7,3.5C35.2,135.8,35.2,136.5,35.3,137.3z M33.5,137.2
				c-0.1-0.7-0.1-1.5-0.2-2.2c-0.3-1.4-0.9-2.7-2.5-3.1c-2.3-0.6-4.1,0.1-5,2.2c-0.9,2-0.8,4.1-0.2,6.2c0.6,1.8,1.7,2.5,3.5,2.6
				c1.8,0.1,3.1-0.8,3.7-2.5C33.3,139.4,33.5,138.3,33.5,137.2z"/>
			<path class="st0" d="M133.6,137.4c-0.1,0.9-0.2,1.9-0.5,2.9c-0.7,2.6-2.4,4-5.1,4.1c-0.8,0-1.6-0.1-2.3-0.2
				c-1.5-0.4-2.6-1.3-3.2-2.8c-0.5-1.1-0.7-2.2-0.7-3.3c0-1.5,0-2.9,0.6-4.3c1.4-3.6,5.6-4.9,8.8-2.7c1.3,0.9,1.9,2.2,2.2,3.7
				C133.4,135.6,133.5,136.4,133.6,137.4z M131.8,137.2c-0.1-0.6,0-1.3-0.2-1.9c-0.2-0.7-0.4-1.4-0.7-2c-1.1-2.1-5.2-2.3-6.5,0.4
				c-1.1,2.3-1.1,4.6-0.3,6.9c0.6,1.6,1.9,2.3,3.6,2.3c1.7,0,2.9-0.7,3.6-2.3C131.6,139.5,131.7,138.3,131.8,137.2z"/>
			<path class="st0" d="M109.3,144.2c-0.5,0-0.8,0-1.1,0c-0.8,0-0.8,0-1.1-0.7c-0.3-0.8-0.6-1.6-0.9-2.5c-1.9,0-3.8,0-5.7,0
				c-0.3,0.8-0.5,1.6-0.8,2.4c-0.3,0.8-0.3,0.8-1.2,0.8c-0.3,0-0.6,0-0.9,0c0-0.3,0-0.5,0.1-0.7c1.4-4.1,2.9-8.3,4.4-12.4
				c0.3-0.7,0.5-0.8,1.3-0.8c0.8,0,1.1,0.1,1.3,0.9c0.9,2.5,1.8,5.1,2.7,7.6c0.5,1.5,1,2.9,1.5,4.4
				C109.1,143.4,109.2,143.7,109.3,144.2z M101.1,139.4c1.6,0,3.1,0,4.7,0c-0.8-2.4-1.5-4.7-2.3-7c-0.1,0-0.2,0-0.2,0
				C102.6,134.6,101.9,136.9,101.1,139.4z"/>
			<path class="st0" d="M71.2,130.4c0,0.5,0,0.9,0,1.4c-0.3,0-0.6,0.1-0.9,0.1c-1.5,0-2.9,0-4.4,0c-0.3,0-0.5,0-0.8,0
				c-0.8,0.1-1.2,0.5-1.2,1.2c0,0.9,0,1.9,0,3c1.1,0,2.2,0,3.3,0c1.1,0,2.2,0,3.3,0c0,0.5,0,1,0,1.5c-2.2,0-4.4,0-6.6,0
				c0,0.5,0,1,0,1.4c0,0.7,0,1.3,0,2c0,1.2,0.4,1.6,1.6,1.6c1.6,0,3.2,0,4.7,0c0.3,0,0.6,0,1,0c0,0.5,0,1,0,1.5
				c-0.3,0-0.6,0.1-0.8,0.1c-1.5,0-3.1,0-4.6,0c-2.6,0-3.6-1.1-3.7-3.7c0-2.2,0-4.4,0-6.6c0-0.2,0-0.5,0-0.7
				c0.2-1.9,1.2-2.8,3.1-2.9c1.8-0.1,3.6,0,5.3,0C70.8,130.3,71,130.4,71.2,130.4z"/>
			<path class="st0" d="M59.3,131c-0.2,0.5-0.4,0.9-0.5,1.4c-0.4-0.1-0.7-0.2-0.9-0.3c-1.1-0.4-2.2-0.5-3.3-0.4
				c-0.3,0-0.7,0.1-1,0.2c-1.3,0.5-1.6,2.2-0.4,3.1c0.4,0.3,0.9,0.5,1.3,0.7c0.9,0.4,1.8,0.7,2.7,1.1c0.6,0.3,1.1,0.6,1.6,0.9
				c2.1,1.5,1.7,5-0.8,6.1c-0.6,0.2-1.2,0.4-1.8,0.5c-1.9,0.2-3.8-0.1-5.6-0.8c-0.1,0-0.2-0.1-0.2-0.1c0,0-0.1-0.1-0.2-0.2
				c0.2-0.4,0.3-0.8,0.5-1.3c0.4,0.1,0.7,0.2,1,0.4c1.4,0.5,2.8,0.8,4.2,0.6c0.4-0.1,0.8-0.1,1.2-0.3c1.4-0.6,1.7-2.3,0.7-3.3
				c-0.4-0.4-0.9-0.7-1.4-0.9c-0.9-0.4-1.8-0.7-2.6-1.1c-0.5-0.2-1-0.5-1.5-0.8c-1.3-0.8-1.8-2-1.5-3.5c0.3-1.5,1.2-2.3,2.6-2.7
				c1.9-0.5,3.8-0.2,5.6,0.5C58.9,130.8,59,130.9,59.3,131z"/>
			<path class="st0" d="M85.2,130.4c0.2,0,0.4-0.1,0.6-0.1c1-0.1,1.1,0,1.4,1c1.1,3.3,2.2,6.7,3.3,10c0.1,0.3,0.2,0.6,0.4,1.2
				c0.6-1.1,0.7-2.2,1.1-3.1c0.3-1,0.7-1.9,1-2.9c0.3-1,0.7-2,1-3c0.3-1,0.7-1.9,1-3c0.6,0,1.1,0,1.8,0c0,0.2,0,0.4-0.1,0.5
				c-1.4,4.1-2.8,8.2-4.3,12.2c-0.4,1.1-0.6,1.2-1.7,1.1c-0.6,0-0.9-0.3-1.1-0.8c-1.5-4.2-2.9-8.4-4.4-12.6
				C85.2,130.7,85.2,130.6,85.2,130.4z"/>
			<path class="st0" d="M80.2,106.7c0.8,0,1.5,0,2.2,0c0.2,0.7,0.2,17.6,0,18.5c-0.6,0.3-1.2,0.1-1.8,0.1c-0.2,0-0.3-0.3-0.4-0.5
				c-0.1-0.2,0-0.4,0-0.6c0-5.5,0-11,0-16.6C80.2,107.4,80.2,107.1,80.2,106.7z"/>
			<path class="st0" d="M147.5,130.4c0.2,0,0.3-0.1,0.4-0.1c1-0.2,1.6,0.2,2.1,1.1c0.7,1.6,1.6,3.1,2.4,4.7c0.1,0.3,0.3,0.5,0.5,1
				c0.2-0.3,0.3-0.5,0.4-0.7c0.9-1.6,1.7-3.3,2.6-4.9c0.6-1.3,0.8-1.3,2.3-1c-0.3,0.6-0.6,1.2-0.9,1.7c-1.1,1.9-2.1,3.9-3.2,5.8
				c-0.3,0.5-0.4,0.9-0.4,1.5c0,1.2,0,2.4,0,3.6c0,0.4,0,0.7-0.1,1.1c-0.5,0-1,0-1.5,0c0-0.3-0.1-0.5-0.1-0.8c0-1.2,0-2.5,0-3.7
				c0-0.7-0.1-1.3-0.5-1.9c-1.2-2.1-2.4-4.2-3.6-6.4C147.8,131.1,147.7,130.8,147.5,130.4z"/>
			<path class="st0" d="M114.2,144.1c0-4.1,0-8.1,0-12.2c-1.4,0-2.7,0-4.1,0c0-0.5,0-1,0-1.5c3.4,0,6.7,0,10.1,0c0,0.5,0,0.9,0,1.5
				c-1.4,0-2.7,0-4.2,0c0,4.1,0,8.2,0,12.2C115.4,144.3,114.9,144.2,114.2,144.1z"/>
			<path class="st0" d="M92.6,90.7c0,0.3,0,0.6,0,1c-0.3,0-0.6,0.1-0.9,0.1c-1,0-1.9,0-2.9,0c-0.8,0-1.1,0.3-1.1,1.1
				c0,0.5,0,1.1,0,1.7c1.5,0,3,0,4.5,0c0,0.4,0,0.6,0,1c-1.5,0-3,0-4.5,0c0,1,0,1.8,0,2.7c0,0.5,0.4,0.8,1,0.8c1,0,2.1,0,3.1,0
				c0.3,0,0.6,0,0.9,0c0,0.4,0,0.7,0,1c-0.1,0-0.3,0.1-0.4,0.1c-1.2,0-2.4,0-3.6,0c-1.5,0-2.2-0.8-2.3-2.3c0-1.6,0-3.3,0-4.9
				c0-1.6,0.8-2.3,2.3-2.3c1.2,0,2.3,0,3.5,0C92.3,90.7,92.4,90.7,92.6,90.7z"/>
			<path class="st0" d="M66,99.1c0,0.4,0,0.7,0,1.1c-0.8,0-1.6,0-2.4,0c-0.7,0-1.4,0-2.1-0.1c-1.1-0.1-1.7-0.8-1.7-1.9
				c0-1.9,0-3.8,0-5.7c0-1,0.7-1.8,1.7-1.9c1.5-0.1,3,0,4.5,0c0,0.4,0,0.7,0,1.1c-0.5,0-1,0-1.4,0c-0.9,0-1.7,0-2.6,0
				c-0.7,0-0.9,0.3-1,0.9c0,0.6,0,1.2,0,1.9c1.5,0,3,0,4.5,0c0,0.4,0,0.7,0,1.1c-1.5,0-2.9,0-4.5,0c0,1,0,1.8,0,2.7
				c0,0.5,0.4,0.7,1,0.7c1,0,2,0,3,0C65.3,99.1,65.6,99.1,66,99.1z"/>
			<path class="st0" d="M116.2,100.2c0,0.9,0,1.8,0,2.7c-0.4,0-0.7,0-1,0c-0.2-0.6-0.3-8.3-0.1-9.5c1.3-0.5,2.6-0.8,4-0.4
				c0.8,0.2,1.3,0.8,1.6,1.5c0.5,1.3,0.5,2.7-0.1,4c-0.5,1.1-1.4,1.7-2.6,1.7C117.5,100.3,116.9,100.3,116.2,100.2z M116.2,94.1
				c0,1.7,0,3.3,0,4.9c0.6,0.3,1.3,0.4,1.9,0.3c0.8-0.1,1.4-0.6,1.6-1.4c0.1-0.7,0.2-1.4,0.1-2.1c-0.2-1.4-1-2-2.4-1.9
				C117,93.9,116.7,94,116.2,94.1z"/>
			<path class="st0" d="M23.4,99.6c0.2-0.4,0.3-0.7,0.4-1c0.7,0.2,1.4,0.4,2.2,0.5c0.7,0.1,1.4,0,2-0.1c0.5-0.1,0.9-0.5,1-1.1
				c0.1-0.6-0.1-1.1-0.6-1.4c-0.4-0.2-0.7-0.4-1.1-0.6c-0.7-0.3-1.5-0.6-2.2-1c-1.1-0.6-1.4-1.3-1.3-2.4c0.1-1,0.8-1.7,2-2
				c1.4-0.3,2.7,0,4,0.5c-0.1,0.4-0.2,0.6-0.4,1c-0.3-0.1-0.5-0.2-0.8-0.2c-0.8-0.1-1.5-0.2-2.3-0.2c-0.7,0-1.2,0.5-1.3,1
				c-0.1,0.5,0.1,1,0.8,1.3c0.6,0.3,1.3,0.6,2,0.9c0.4,0.2,0.8,0.4,1.2,0.6c1,0.6,1.5,1.5,1.3,2.6c-0.2,1.2-0.9,1.9-2,2.1
				C26.6,100.5,25,100.3,23.4,99.6z"/>
			<path class="st0" d="M53,94.2c0,2,0,4,0,6c-0.4,0-0.7,0-1.1,0c0-3.3,0-6.5,0-9.8c0.4,0,0.7,0,1.1,0c0,0.9,0,1.8,0,2.8
				c0.4-0.1,0.7-0.1,1-0.1c0.5,0,0.9-0.1,1.4-0.1c1.4,0.1,2.2,0.9,2.3,2.3c0.1,1.6,0,3.2,0,4.9c-0.3,0-0.6,0-1,0.1
				c0-0.3-0.1-0.5-0.1-0.7c0-0.9,0-1.9,0-2.8c0-0.3,0-0.6,0-0.9c-0.2-1.5-0.9-2.1-2.4-1.9C53.8,94,53.5,94.1,53,94.2z"/>
			<path class="st0" d="M135.5,99.8c-1.4,0.6-2.8,0.7-4.3,0.3c-1-0.3-1.5-0.9-1.5-1.9c0-1,0.3-1.8,1.2-2.2c0.6-0.2,1.2-0.3,1.8-0.4
				c0.5-0.1,1,0,1.4,0c0.3-1.1-0.1-1.6-1.1-1.7c-0.4,0-0.8,0-1.2,0c-0.4,0-0.8,0.1-1.2,0.2c-0.1-0.2-0.2-0.5-0.2-0.7
				c1-0.7,3.2-0.8,4.2-0.2c0.6,0.3,0.9,0.9,0.9,1.5C135.6,96.4,135.5,98.1,135.5,99.8z M134.3,96.6c-0.9,0.1-1.7,0.1-2.5,0.2
				c-0.6,0.1-0.9,0.7-0.9,1.3c0,0.6,0.3,1,1,1.1c0.8,0.2,1.6,0.1,2.4-0.2C134.3,98.3,134.3,97.6,134.3,96.6z"/>
			<path class="st0" d="M71.7,95.7c0.3-1.3-0.5-1.8-1.4-1.7c-0.7,0-1.5,0.1-2.2,0.2c-0.1-0.2-0.1-0.5-0.3-0.8c1.4-0.5,2.7-0.7,4-0.2
				c0.7,0.3,1.1,0.8,1.1,1.5c0,1.7,0,3.4,0,5.1c-1.5,0.6-3,0.7-4.6,0.2c-0.8-0.3-1.2-1-1.2-1.8c0-0.9,0.2-1.7,1.1-2.1
				c0.6-0.3,1.2-0.4,1.8-0.5C70.6,95.6,71.2,95.7,71.7,95.7z M71.8,96.6c-0.8,0-1.6,0-2.3,0.2c-0.7,0.1-1.1,0.7-1.1,1.3
				c0,0.6,0.4,1,1.1,1.2c0.8,0.2,1.5,0,2.3-0.2C71.8,98.3,71.8,97.6,71.8,96.6z"/>
			<path class="st0" d="M123.6,97c0.1,1.7,0.9,2.5,2.5,2.3c0.5-0.1,0.9-0.2,1.5-0.3c0.1,0.2,0.2,0.5,0.3,0.7
				c-2.2,1.6-5.1,0.5-5.4-2.1c-0.1-0.9-0.1-1.8,0.2-2.7c0.7-1.9,2.9-2.6,4.6-1.6c1.1,0.6,1.3,2.1,1.2,2.9c-0.1,0.5-0.5,0.7-1.1,0.7
				c-0.9,0-1.9,0-2.8,0C124.2,97,123.9,97,123.6,97z M127.4,96c0-1.5-0.6-2.1-1.9-2.1c-1.1,0-1.8,0.9-1.7,2.1
				C124.9,96,126.1,96,127.4,96z"/>
			<path class="st0" d="M31.3,96.5c0.1-0.4,0.1-0.8,0.2-1.3c0.5-1.9,2.4-2.8,4.3-2.1c0.9,0.3,1.4,1,1.6,1.9c0.4,1.2,0.3,2.4-0.1,3.5
				c-0.4,1-1.1,1.6-2.2,1.8c-0.1,0-0.2,0-0.3,0c-1.8,0.1-3-0.7-3.4-2.6C31.4,97.4,31.4,97,31.3,96.5z M32.5,96.5
				c0.1,0.5,0.1,1,0.2,1.3c0.3,1,0.9,1.5,1.8,1.5c0.9,0,1.6-0.5,1.9-1.5c0.3-0.9,0.3-1.7,0-2.6c-0.2-0.9-0.8-1.4-1.6-1.4
				c-0.9-0.1-1.6,0.3-1.9,1.1C32.6,95.5,32.6,96.1,32.5,96.5z"/>
			<path class="st0" d="M107.1,96.7c0.1-0.6,0.2-1.2,0.3-1.8c0.5-1.4,1.7-2.1,3.1-2.1c1.5,0.1,2.5,0.9,2.8,2.4
				c0.2,1.1,0.2,2.2-0.2,3.2c-0.4,1-1.2,1.6-2.3,1.7C108.5,100.6,107.2,99.4,107.1,96.7z M108.3,96.5c0.1,0.5,0.1,0.9,0.1,1.3
				c0.2,1,0.8,1.6,1.8,1.6c1,0,1.7-0.5,2-1.6c0.2-0.8,0.2-1.6,0-2.5c-0.2-0.9-0.8-1.4-1.6-1.5c-0.9-0.1-1.6,0.3-2,1.1
				C108.4,95.5,108.3,96.1,108.3,96.5z"/>
			<path class="st0" d="M94.1,93.1c0.4,0,0.7,0,1.1,0c0,0.2,0.1,0.4,0.1,0.6c0,1.1,0,2.2,0,3.3c0,0.3,0,0.7,0.1,1
				c0.2,0.7,0.6,1.1,1.3,1.1c0.6,0,1.2,0,2,0c0-1.1,0-2.1,0-3.1c0-1,0-2,0-3c0.4,0,0.7,0,1.1,0c0,0.3,0,0.6,0,0.8c0,1.6,0,3.3,0,4.9
				c0,1.1-0.3,1.4-1.4,1.5c-0.7,0-1.4,0.1-2.1,0c-1.2-0.1-1.9-0.7-2.1-1.9c-0.1-0.6-0.1-1.2-0.1-1.8C94.1,95.4,94.1,94.3,94.1,93.1z
				"/>
			<path class="st0" d="M138.5,94.1c0,2.1,0,4.1,0,6.1c-0.4,0-0.7,0-1,0c0-0.2-0.1-0.4-0.1-0.6c0-1.7,0-3.4,0-5.2
				c0-1.1,0.1-1.3,1.2-1.3c0.9-0.1,1.8-0.1,2.6,0.1c1,0.1,1.7,0.8,1.9,1.9c0.1,0.5,0.2,1,0.2,1.5c0,1.2,0,2.4,0,3.7
				c-0.4,0-0.7,0-1.1,0.1c0-0.4,0-0.7,0-1c0-1,0-2,0-3c0-1.7-0.7-2.3-2.4-2.3C139.4,93.9,139,94,138.5,94.1z"/>
			<path class="st0" d="M43.9,93.1c0.4,0,0.7,0,1.1,0c0,0.2,0.1,0.5,0.1,0.7c0,1.7,0,3.4,0,5.1c0,1.1-0.2,1.4-1.4,1.4
				c-0.6,0-1.2,0.1-1.8,0c-1.5-0.1-2.4-0.8-2.5-2.3c-0.1-1.6,0-3.2,0-4.9c0.4,0,0.7,0,1.1,0c0,0.3,0,0.6,0,0.9c0,1.1,0,2.2,0,3.3
				c0.1,1.4,0.6,1.8,1.9,1.9c0.5,0,0.9,0,1.5-0.1c0.1-1.1,0-2.1,0-3.1C43.9,95.1,43.9,94.1,43.9,93.1z"/>
			<path class="st0" d="M74.4,99.7c0.1-0.3,0.2-0.6,0.4-0.8c0.7,0.2,1.3,0.3,2,0.4c0.4,0.1,0.8,0,1.2-0.1c0.4-0.1,0.7-0.4,0.7-0.8
				c0.1-0.4-0.1-0.7-0.5-0.9c-0.3-0.2-0.7-0.3-1-0.5c-0.5-0.2-1-0.4-1.5-0.7c-0.7-0.3-0.9-0.9-0.9-1.6c0.1-0.8,0.5-1.4,1.2-1.6
				c1.2-0.4,2.3-0.2,3.5,0.3c-0.1,0.3-0.2,0.6-0.3,0.8c-0.7-0.1-1.4-0.2-2-0.3c-0.2,0-0.5,0-0.7,0.1c-0.6,0.3-0.7,1-0.2,1.4
				c0.3,0.2,0.6,0.3,0.9,0.5c0.5,0.2,1,0.4,1.5,0.7c0.9,0.5,1.2,1.1,1.1,2c-0.1,0.8-0.7,1.4-1.6,1.6
				C76.9,100.4,75.7,100.4,74.4,99.7z"/>
			<path class="st0" d="M81.7,94c-0.4-0.1-0.8-0.1-1.1-0.1c0-0.2,0-0.4,0-0.6c0.4-0.1,0.7-0.2,1.1-0.3c0.5-0.5-0.1-1.6,1.2-1.7
				c0,0.6,0.1,1.1,0.1,1.8c0.5,0,1,0.1,1.6,0.1c0,0.3,0,0.5,0,0.8c-0.5,0-1,0.1-1.6,0.1c0,0.7,0,1.3,0,1.9c0,0.8,0,1.7,0,2.5
				c0,0.7,0.2,0.9,0.9,0.9c0.4,0,0.7,0,1.2-0.1c0.1,0.3,0.1,0.5,0.2,0.9c-0.9,0.3-1.8,0.3-2.6,0.1c-0.7-0.2-0.9-0.8-0.9-1.4
				c0-1.3,0-2.6,0-3.9C81.7,94.6,81.7,94.3,81.7,94z"/>
			<path class="st0" d="M50.2,93c0,0.4,0,0.6,0,0.9c-0.5,0-1.1,0.1-1.7,0.1c0,1.5,0,3,0,4.5c0,0.6,0.3,0.7,0.8,0.8
				c0.4,0,0.8,0,1.3,0c0,0.2,0.1,0.5,0.2,0.8c-0.9,0.3-1.7,0.3-2.5,0.1c-0.7-0.2-0.9-0.8-0.9-1.5c0-1.2,0-2.5,0-3.7c0-0.3,0-0.6,0-1
				c-0.4-0.1-0.7-0.1-1.1-0.2c0-0.2-0.1-0.3-0.1-0.6c0.4-0.1,0.8-0.2,1.2-0.3c0.4-0.5-0.1-1.6,1.2-1.7c0,0.6,0.1,1.1,0.1,1.8
				C49.1,93,49.6,93,50.2,93z"/>
			<path class="st0" d="M103,100.1c-0.4,0-0.8,0-1.2,0c0-0.5,0-0.9,0-1.3c0-1.5,0-3.1,0-4.6c0-0.9,0.2-1.1,1.1-1.2
				c1-0.1,1.9,0,2.8,0.4c0.3,0.1,0.5,0.3,0.8,0.5c-0.2,0.3-0.4,0.6-0.6,0.8c-0.5-0.2-0.9-0.5-1.4-0.6c-0.4-0.1-0.9-0.1-1.5-0.1
				C103,96.1,103,98.1,103,100.1z"/>
		</g>
	</g>
</g>
</svg>
